<svg xmlns="http://www.w3.org/2000/svg" viewBox="0 0 1074.73 657.01"><defs><style>.cls-1{font-size:44px;font-family:Poppins-SemiBold, Poppins;font-weight:600;}.cls-1,.cls-12,.cls-2{fill:#fff;}.cls-3{fill:#00e7ff;}.cls-4,.cls-6{opacity:0.8;}.cls-10,.cls-11,.cls-13,.cls-15,.cls-16,.cls-17,.cls-18,.cls-19,.cls-5,.cls-6,.cls-7,.cls-8,.cls-9{fill:none;}.cls-13,.cls-15,.cls-17,.cls-5,.cls-6{stroke:#00e7ff;}.cls-10,.cls-11,.cls-12,.cls-13,.cls-15,.cls-16,.cls-17,.cls-18,.cls-5,.cls-6,.cls-7,.cls-8,.cls-9{stroke-miterlimit:10;}.cls-5,.cls-9{stroke-width:3px;}.cls-10,.cls-6{stroke-width:6px;}.cls-10,.cls-11,.cls-12,.cls-16,.cls-7,.cls-8,.cls-9{stroke:#fff;}.cls-7{stroke-width:5px;stroke-dasharray:9.54 87.94;}.cls-12,.cls-8{stroke-width:2px;}.cls-8{stroke-dasharray:52.72 39.05;}.cls-11{stroke-width:4px;}.cls-13,.cls-15,.cls-17{stroke-width:28px;}.cls-13,.cls-14{opacity:0.5;}.cls-15{stroke-dasharray:99.45 99.45;}.cls-16{stroke-width:20px;stroke-dasharray:162.65 81.32;}.cls-17{stroke-dasharray:122.39 118.02;}.cls-18{stroke:#66e9ff;stroke-width:40px;opacity:0.25;}</style></defs><g id="Layer_2" data-name="Layer 2"><g id="Layer_1-2" data-name="Layer 1"><text class="cls-1" transform="translate(481.92 38.22)">WEB <tspan x="-102.3" y="52.8">DEVELOPMENT</tspan></text><path class="cls-2" d="M194.48,542.43v16.5c0,5.36-13.8,9.7-30.82,9.7s-30.82-4.34-30.82-9.7v-16.5h2.55c0,2.14,9.61,7.15,28.27,7.15s28.26-5,28.26-7.15Z"/><path class="cls-2" d="M194.48,562.58c0,5.36-13.8,9.7-30.82,9.7s-30.82-4.34-30.82-9.7h0v16.5c0,5.36,13.79,9.7,30.82,9.7s30.82-4.34,30.82-9.7v-16.5Z"/><path class="cls-2" d="M194.48,582.65c0,5.35-13.8,9.7-30.82,9.7s-30.82-4.35-30.82-9.7h0v16.49c0,5.36,13.79,9.71,30.82,9.71s30.82-4.35,30.82-9.71V582.65Z"/><path class="cls-2" d="M163.66,532.73c-17,0-30.82,4.34-30.82,9.7s13.8,9.7,30.82,9.7,30.82-4.34,30.82-9.7S180.68,532.73,163.66,532.73Zm0,16.85c-18.66,0-28.27-5-28.27-7.15s9.61-7.15,28.27-7.15,28.26,5,28.26,7.15S182.3,549.58,163.66,549.58Z"/><path class="cls-3" d="M163.83,642.47A71.88,71.88,0,0,1,92,570.67h3a68.8,68.8,0,1,0,68.8-68.8v-3a71.8,71.8,0,0,1,0,143.6Z"/><g class="cls-4"><path class="cls-3" d="M163.83,635.69a65,65,0,1,1,65-65A65.1,65.1,0,0,1,163.83,635.69Zm0-124a59,59,0,1,0,59,59A59.09,59.09,0,0,0,163.83,511.65Z"/></g><path class="cls-2" d="M186.52,631.07l-1.77-4.68a60,60,0,0,0,8.29-3.88l.11-.06,2.47,4.35-.13.07A64.77,64.77,0,0,1,186.52,631.07Zm-79-28.69,0-.11a63.58,63.58,0,0,1-4.15-8.88l4.67-1.76a60.06,60.06,0,0,0,3.87,8.25Zm112-52.81a59.3,59.3,0,0,0-3.84-8.2l4.3-2.56.07.13a64.23,64.23,0,0,1,4.15,8.85Zm-85-30.83-1.29-2.15L132,514.41l.06,0a66.06,66.06,0,0,1,8.9-4.17l1.77,4.68A59.59,59.59,0,0,0,134.53,518.74Z"/><path class="cls-2" d="M163.89,630.11h-.06a59.16,59.16,0,0,1-46.59-22.53l1.57-1.24a57.17,57.17,0,0,0,45,21.77Zm36.8-12.81-1.24-1.57a57.19,57.19,0,0,0,21.82-45.06v-.22l2,0v.24A59.15,59.15,0,0,1,200.69,617.3Zm-94.3-46.51h-2v-.12a59.18,59.18,0,0,1,22.48-46.55l1.25,1.56a57.19,57.19,0,0,0-21.73,45Zm102.39-35.87a57.17,57.17,0,0,0-44.95-21.68h-.17v-2h.16a59.17,59.17,0,0,1,46.53,22.43Z"/><path class="cls-2" d="M128.16,624.48l1.42-2.07-1.42,2.07a65.42,65.42,0,0,1-7.79-6.05l3.36-3.71a59.45,59.45,0,0,0,7.2,5.59l-1.35,2.1Zm83.4-10.41-3.7-3.36a60.71,60.71,0,0,0,5.61-7.23l.08-.11,4.17,2.76-.07.1A65.46,65.46,0,0,1,211.56,614.07Zm-97.46-76.3-4.22-2.68.06-.1a65.33,65.33,0,0,1,6-7.75l3.7,3.36A59.69,59.69,0,0,0,114.1,537.77Zm89.69-11.29a60.35,60.35,0,0,0-7.15-5.54l-.09-.06,2.77-4.16.06,0a65.25,65.25,0,0,1,7.76,6Z"/><path class="cls-2" d="M249.84,570.63a5.1,5.1,0,1,1-6.75-4.81A79.46,79.46,0,1,0,159,649.94a5.09,5.09,0,1,1-.09,3,82.46,82.46,0,1,1,87.21-87.21A5.09,5.09,0,0,1,249.84,570.63Z"/><path class="cls-2" d="M141.29,79.91h2.41a20.88,20.88,0,0,0,4.83,11.62l-1.72,1.72a1.82,1.82,0,0,0,2.58,2.57l1.71-1.71a20.83,20.83,0,0,0,11.63,4.83v2.41a1.82,1.82,0,1,0,3.64,0V98.94A20.8,20.8,0,0,0,178,94.11l1.72,1.71a1.82,1.82,0,0,0,2.57-2.57l-1.71-1.72a20.79,20.79,0,0,0,4.82-11.62h2.42a1.83,1.83,0,0,0,0-3.65h-2.42a20.82,20.82,0,0,0-4.82-11.62l1.71-1.71a1.82,1.82,0,0,0-2.57-2.58L178,62.07a20.73,20.73,0,0,0-11.62-4.83V54.83a1.82,1.82,0,1,0-3.64,0v2.41a20.76,20.76,0,0,0-11.63,4.83l-1.71-1.72a1.82,1.82,0,0,0-2.58,2.58l1.72,1.71a20.91,20.91,0,0,0-4.83,11.62h-2.41a1.83,1.83,0,0,0,0,3.65Zm9.83-12.68a16.94,16.94,0,0,1,2.57-2.58,17.13,17.13,0,0,1,9-3.74,16.61,16.61,0,0,1,3.64,0,17.2,17.2,0,0,1,9,3.74A17.41,17.41,0,0,1,178,67.23a17.22,17.22,0,0,1,3.75,9,16.7,16.7,0,0,1,0,3.65,17.32,17.32,0,0,1-15.36,15.37,18.45,18.45,0,0,1-3.64,0,17.15,17.15,0,0,1-9-3.76A16.88,16.88,0,0,1,151.12,89a17.13,17.13,0,0,1-3.75-9,16.7,16.7,0,0,1,0-3.65A17.06,17.06,0,0,1,151.12,67.23Z"/><path class="cls-2" d="M109.07,114.06l1.94-.45a17.19,17.19,0,0,0,6.08,8.42L116,123.74a1.5,1.5,0,0,0,2.56,1.58l1-1.7a17.26,17.26,0,0,0,10.26,1.68l.45,1.93a1.5,1.5,0,0,0,1.81,1.12,1.48,1.48,0,0,0,1.12-1.81l-.45-1.93a17.22,17.22,0,0,0,8.43-6.08l1.7,1a1.5,1.5,0,1,0,1.58-2.55l-1.7-1.06a17.22,17.22,0,0,0,1.68-10.25l1.94-.46a1.51,1.51,0,0,0-.69-2.93l-1.94.46a17.17,17.17,0,0,0-6.08-8.43l1.06-1.7a1.52,1.52,0,0,0-.49-2.07,1.49,1.49,0,0,0-1.14-.19,1.51,1.51,0,0,0-.93.68l-1.05,1.7a17.18,17.18,0,0,0-10.26-1.68l-.45-1.94a1.51,1.51,0,1,0-2.93.69l.45,1.94a17.26,17.26,0,0,0-8.43,6.07l-1.7-1a1.51,1.51,0,0,0-1.13-.18,1.48,1.48,0,0,0-.94.67,1.51,1.51,0,0,0,.49,2.07l1.7,1a17.24,17.24,0,0,0-1.68,10.26l-1.94.45a1.51,1.51,0,0,0,.69,2.93Zm5.5-12a14.85,14.85,0,0,1,1.58-2.55,14.22,14.22,0,0,1,6.55-4.73c.47-.16,1-.3,1.45-.42a12.79,12.79,0,0,1,1.48-.27,14.19,14.19,0,0,1,8,1.31,13.47,13.47,0,0,1,2.56,1.58,14.42,14.42,0,0,1,5.15,8,12.75,12.75,0,0,1,.26,1.48,14.2,14.2,0,0,1-1.3,8,14.56,14.56,0,0,1-1.58,2.56,14.29,14.29,0,0,1-6.55,4.73c-.47.16-1,.3-1.45.42a12.79,12.79,0,0,1-1.48.27,14.19,14.19,0,0,1-8-1.31,14.34,14.34,0,0,1-7.28-8.14,13.34,13.34,0,0,1-.43-1.44c-.11-.5-.2-1-.26-1.49A14.21,14.21,0,0,1,114.57,102Z"/><path class="cls-2" d="M101.93,68.61h1.78a15.3,15.3,0,0,0,3.56,8.57L106,78.45a1.34,1.34,0,1,0,1.9,1.9l1.27-1.27a15.39,15.39,0,0,0,8.57,3.57v1.77a1.35,1.35,0,0,0,2.69,0V82.65A15.39,15.39,0,0,0,129,79.08l1.26,1.27a1.35,1.35,0,0,0,1.9,0,1.33,1.33,0,0,0,0-1.9l-1.26-1.27a15.37,15.37,0,0,0,3.56-8.57h1.78a1.35,1.35,0,0,0,0-2.69h-1.78a15.37,15.37,0,0,0-3.56-8.57l1.26-1.26a1.35,1.35,0,0,0-.95-2.3,1.36,1.36,0,0,0-1,.4L129,55.45a15.3,15.3,0,0,0-8.57-3.56V50.11a1.35,1.35,0,0,0-2.69,0v1.78a15.3,15.3,0,0,0-8.57,3.56l-1.27-1.26a1.34,1.34,0,0,0-1-.4,1.38,1.38,0,0,0-1,.4,1.35,1.35,0,0,0,0,1.9l1.27,1.26a15.3,15.3,0,0,0-3.56,8.57h-1.78a1.35,1.35,0,1,0,0,2.69Zm7.24-9.35a13.12,13.12,0,0,1,1.9-1.9,12.73,12.73,0,0,1,6.67-2.77,13,13,0,0,1,2.69,0,12.7,12.7,0,0,1,6.66,2.77,12.19,12.19,0,0,1,1.9,1.9,12.7,12.7,0,0,1,2.77,6.66c0,.44.07.89.07,1.35s0,.9-.07,1.34A12.7,12.7,0,0,1,129,75.27a12.19,12.19,0,0,1-1.9,1.9,12.62,12.62,0,0,1-6.66,2.77,11.35,11.35,0,0,1-2.69,0,12.65,12.65,0,0,1-6.67-2.77,13.12,13.12,0,0,1-1.9-1.9,12.68,12.68,0,0,1-2.76-6.66,13,13,0,0,1,0-2.69A12.68,12.68,0,0,1,109.17,59.26Z"/><path class="cls-5" d="M142.53,156.31A70.31,70.31,0,1,1,212.83,86"/><circle class="cls-6" cx="142.53" cy="86.01" r="62.02"/><circle class="cls-7" cx="142.58" cy="86.05" r="62.07" transform="translate(26.47 205.43) rotate(-76.91)"/><circle class="cls-8" cx="142.53" cy="86.01" r="58.44"/><circle class="cls-7" cx="142.58" cy="86.05" r="62.07"/><path class="cls-9" d="M142.58,5.09a81,81,0,1,1-81,81"/><circle class="cls-10" cx="142.58" cy="5.09" r="2.09"/><circle class="cls-10" cx="61.62" cy="86.05" r="2.09"/><line class="cls-11" x1="723.65" y1="317.82" x2="907.95" y2="317.23"/><circle class="cls-10" cx="723.65" cy="317.82" r="1.97"/><line class="cls-11" x1="345.99" y1="320.02" x2="161.69" y2="319.43"/><circle class="cls-10" cx="345.99" cy="320.02" r="1.97"/><line class="cls-11" x1="383.57" y1="425.02" x2="221.23" y2="512.27"/><circle class="cls-10" cx="383.57" cy="425.02" r="1.97"/><line class="cls-11" x1="371.47" y1="218.3" x2="209.13" y2="131.05"/><circle class="cls-10" cx="371.47" cy="218.3" r="1.97"/><line class="cls-11" x1="685.44" y1="427.09" x2="847.78" y2="514.34"/><circle class="cls-10" cx="685.44" cy="427.09" r="1.97"/><line class="cls-11" x1="696.7" y1="214.39" x2="859.04" y2="127.14"/><circle class="cls-10" cx="696.7" cy="214.39" r="1.97"/><path class="cls-3" d="M988.72,389.48a71.88,71.88,0,0,1-71.8-71.8h3a68.8,68.8,0,1,0,68.8-68.8v-3a71.8,71.8,0,0,1,0,143.6Z"/><g class="cls-4"><path class="cls-3" d="M988.72,382.7a65,65,0,1,1,65-65A65.1,65.1,0,0,1,988.72,382.7Zm0-124a59,59,0,1,0,59,59A59.08,59.08,0,0,0,988.72,258.66Z"/></g><path class="cls-2" d="M1011.41,378.08l-1.77-4.68a60,60,0,0,0,8.29-3.88l.11-.06,2.47,4.35-.13.07A67.09,67.09,0,0,1,1011.41,378.08Zm-79-28.69-.06-.11a65.94,65.94,0,0,1-4.15-8.88l4.68-1.77a61.32,61.32,0,0,0,3.86,8.26Zm112-52.82a59.18,59.18,0,0,0-3.84-8.19l4.3-2.56.07.13a66.65,66.65,0,0,1,4.15,8.85Zm-85-30.82-1.29-2.15-1.22-2.18.06,0a64.31,64.31,0,0,1,8.9-4.17l1.77,4.67A60.84,60.84,0,0,0,959.42,265.75Z"/><path class="cls-2" d="M988.78,377.11h-.06a59.16,59.16,0,0,1-46.59-22.52l1.57-1.24a57.16,57.16,0,0,0,45,21.76Zm36.8-12.8-1.24-1.57a57.18,57.18,0,0,0,21.81-45.06v-.23h2v.24A59.15,59.15,0,0,1,1025.58,364.31Zm-94.3-46.51h-2v-.12a59.17,59.17,0,0,1,22.48-46.55l1.25,1.56a57.18,57.18,0,0,0-21.73,45Zm102.39-35.88a57.2,57.2,0,0,0-45-21.68h-.18v-2h.17a59.16,59.16,0,0,1,46.52,22.44Z"/><path class="cls-2" d="M953.05,371.49l1.41-2.07-1.41,2.06a65.34,65.34,0,0,1-7.79-6l3.36-3.71a59.34,59.34,0,0,0,7.19,5.59l-1.35,2.1Zm83.4-10.42-3.7-3.35a60.71,60.71,0,0,0,5.61-7.23l.08-.12,4.16,2.76-.07.11A64.5,64.5,0,0,1,1036.45,361.07ZM939,284.78l-4.22-2.69.06-.09a65.49,65.49,0,0,1,6-7.75l3.71,3.35A59.79,59.79,0,0,0,939,284.78Zm89.69-11.29a60.35,60.35,0,0,0-7.15-5.54l-.09-.06,2.77-4.16.06,0a64.23,64.23,0,0,1,7.76,6Z"/><path class="cls-2" d="M1074.73,317.64a5.1,5.1,0,1,1-6.75-4.81A79.46,79.46,0,1,0,983.86,397a5.09,5.09,0,1,1-.09,3A82.46,82.46,0,1,1,1071,312.74,5.09,5.09,0,0,1,1074.73,317.64Z"/><g id="Smartphone"><path class="cls-2" d="M1004.6,276.32H972.49A6.7,6.7,0,0,0,965.8,283v69.57a6.7,6.7,0,0,0,6.69,6.69h32.11a6.7,6.7,0,0,0,6.69-6.69V283A6.71,6.71,0,0,0,1004.6,276.32Zm-7,2.68-.81,4H980.28l-.81-4Zm11,73.58a4,4,0,0,1-4,4H972.49a4,4,0,0,1-4-4V283a4,4,0,0,1,4-4h4.25l1.13,5.61a1.33,1.33,0,0,0,1.31,1.08h18.73a1.33,1.33,0,0,0,1.31-1.08l1.12-5.61h4.26a4,4,0,0,1,4,4Z"/><path class="cls-2" d="M980.52,351.24h-8a1.34,1.34,0,0,0,0,2.68h8a1.34,1.34,0,0,0,0-2.68Z"/><path class="cls-2" d="M985.87,351.24h-1.34a1.34,1.34,0,1,0,0,2.68h1.34a1.34,1.34,0,1,0,0-2.68Z"/></g><path class="cls-3" d="M928.76,156.58A71.88,71.88,0,0,1,857,84.77h3A68.81,68.81,0,1,0,928.76,16V13a71.81,71.81,0,1,1,0,143.61Z"/><g class="cls-4"><path class="cls-3" d="M928.76,149.8a65,65,0,1,1,65-65A65.1,65.1,0,0,1,928.76,149.8Zm0-124a59,59,0,1,0,59,59A59.09,59.09,0,0,0,928.76,25.75Z"/></g><path class="cls-2" d="M951.45,145.17l-1.76-4.68a59.87,59.87,0,0,0,8.28-3.87l.12-.07,2.46,4.35-.13.08A64.71,64.71,0,0,1,951.45,145.17Zm-79-28.69-.06-.1a65.29,65.29,0,0,1-4.15-8.88l4.68-1.77a58.85,58.85,0,0,0,3.86,8.25Zm112-52.81a61.72,61.72,0,0,0-3.84-8.2l4.29-2.56L985,53a65.93,65.93,0,0,1,4.14,8.85Zm-85-30.83-1.28-2.14L897,28.52l.06,0a66.18,66.18,0,0,1,8.91-4.17L907.69,29A60.9,60.9,0,0,0,899.46,32.84Z"/><path class="cls-2" d="M928.82,144.21h-.06a59.12,59.12,0,0,1-46.58-22.53l1.56-1.24a57.2,57.2,0,0,0,45,21.77Zm36.81-12.81-1.24-1.57A57.16,57.16,0,0,0,986.2,84.77v-.22h2v.23A59.17,59.17,0,0,1,965.63,131.4Zm-94.3-46.51h-2v-.12a59.17,59.17,0,0,1,22.48-46.55l1.24,1.57a57.18,57.18,0,0,0-21.72,45ZM973.72,49a57.19,57.19,0,0,0-45-21.68h-.17v-2h.17a59.2,59.2,0,0,1,46.52,22.43Z"/><path class="cls-2" d="M893.1,138.58l1.41-2.06-1.42,2.06a65.19,65.19,0,0,1-7.79-6.05l3.36-3.7a61.21,61.21,0,0,0,7.2,5.58l-1.35,2.11Zm83.4-10.41-3.7-3.36a61.34,61.34,0,0,0,5.6-7.22l.08-.12,4.17,2.76-.07.1A65.62,65.62,0,0,1,976.5,128.17ZM879,51.87l-4.22-2.68.07-.1a65.25,65.25,0,0,1,6-7.75l3.71,3.36A60.8,60.8,0,0,0,879,51.87Zm89.69-11.29A60.24,60.24,0,0,0,961.58,35l-.1-.06,2.77-4.16.07,0a66.15,66.15,0,0,1,7.76,6Z"/><path class="cls-2" d="M1014.77,84.73a5.1,5.1,0,1,1-6.75-4.81A79.46,79.46,0,1,0,923.9,164a5.09,5.09,0,1,1-.09,3A82.46,82.46,0,1,1,1011,79.83,5.09,5.09,0,0,1,1014.77,84.73Z"/><path class="cls-2" d="M959.74,54.13H900.83A5.89,5.89,0,0,0,894.94,60v41.23a5.89,5.89,0,0,0,5.89,5.89h20.62c-.06,2.36-.51,6.12-2.19,7.89a2.9,2.9,0,0,1-2.23,1,1.48,1.48,0,0,0,0,3h26.51a1.48,1.48,0,0,0,0-3,2.9,2.9,0,0,1-2.23-1c-1.68-1.77-2.13-5.53-2.19-7.89h20.62a5.9,5.9,0,0,0,5.89-5.89V60A5.9,5.9,0,0,0,959.74,54.13ZM922.24,116c1.78-2.73,2.12-6.65,2.16-8.84h11.76c.05,2.19.39,6.11,2.17,8.84Zm40.44-14.73a3,3,0,0,1-2.94,3H900.83a3,3,0,0,1-3-3V95.36h64.8Zm0-8.83h-64.8V60a3,3,0,0,1,3-3h58.91a3,3,0,0,1,2.94,3v32.4Z"/><circle class="cls-2" cx="930.28" cy="99.78" r="2.95"/><path class="cls-3" d="M82.51,410.52a71.88,71.88,0,0,1-71.8-71.8h3a68.8,68.8,0,1,0,68.8-68.81v-3a71.81,71.81,0,0,1,0,143.61Z"/><g class="cls-4"><path class="cls-3" d="M82.51,403.74a65,65,0,1,1,65-65A65.1,65.1,0,0,1,82.51,403.74Zm0-124a59,59,0,1,0,59,59A59.09,59.09,0,0,0,82.51,279.7Z"/></g><path class="cls-2" d="M105.2,399.11l-1.77-4.67a61.23,61.23,0,0,0,8.29-3.88l.11-.06,2.47,4.34-.13.08A64.71,64.71,0,0,1,105.2,399.11Zm-79-28.69,0-.1A63.58,63.58,0,0,1,22,361.44l4.67-1.77a60.74,60.74,0,0,0,3.87,8.26Zm112-52.81a59.18,59.18,0,0,0-3.84-8.19l4.3-2.56.07.13a64.85,64.85,0,0,1,4.15,8.85Zm-85-30.83-1.29-2.14-1.22-2.18.06,0a64.86,64.86,0,0,1,8.9-4.17l1.77,4.67A60.78,60.78,0,0,0,53.21,286.78Z"/><path class="cls-2" d="M82.57,398.15h-.06a59.18,59.18,0,0,1-46.59-22.52l1.57-1.25a57.14,57.14,0,0,0,45,21.77Zm36.8-12.81-1.24-1.56a57.18,57.18,0,0,0,21.81-45.06v-.23h2v.24A59.12,59.12,0,0,1,119.37,385.34Zm-94.3-46.51h-2v-.11a59.2,59.2,0,0,1,22.48-46.56l1.25,1.57a57.18,57.18,0,0,0-21.73,45ZM127.46,303a57.17,57.17,0,0,0-44.95-21.68h-.17v-2h.16A59.18,59.18,0,0,1,129,301.72Z"/><path class="cls-2" d="M46.84,392.52l1.42-2.06-1.42,2.06a65.34,65.34,0,0,1-7.79-6l3.36-3.71a59.45,59.45,0,0,0,7.2,5.59l-1.35,2.1Zm83.4-10.41-3.7-3.36a59.81,59.81,0,0,0,5.61-7.22l.08-.12,4.17,2.76-.07.11A65.59,65.59,0,0,1,130.24,382.11Zm-97.46-76.3-4.22-2.68.06-.09a65.44,65.44,0,0,1,6-7.76l3.7,3.36A59.69,59.69,0,0,0,32.78,305.81Zm89.69-11.28a59.32,59.32,0,0,0-7.15-5.54l-.09-.07,2.77-4.16.06.05a64.23,64.23,0,0,1,7.76,6Z"/><path class="cls-2" d="M168.52,338.68a5.1,5.1,0,1,1-6.75-4.81A79.46,79.46,0,1,0,77.65,418a5.09,5.09,0,1,1-.09,3,82.46,82.46,0,1,1,87.21-87.21A5.09,5.09,0,0,1,168.52,338.68Z"/><path class="cls-2" d="M82.38,292.06a46.39,46.39,0,0,0-5,.27,42.35,42.35,0,0,0-4.51.72l-.86.19a46.5,46.5,0,0,0-23,12.87c-.59.59-1.16,1.21-1.71,1.84a46.64,46.64,0,0,0,68.42,63.35c.58-.6,1.15-1.21,1.71-1.84a46.64,46.64,0,0,0-35.07-77.4ZM51.1,308.44c.24-.26.5-.5.75-.75l.87-.84c.26-.25.53-.48.79-.72l.91-.79.83-.66c.31-.25.62-.5.94-.74l.86-.62c.32-.23.64-.47,1-.68l.89-.59,1-.62.91-.53,1-.58.93-.48c.36-.18.72-.36,1.07-.52l1-.44,1.1-.47,1-.38c.38-.15.76-.28,1.14-.41l1-.34,1.17-.35,1-.28.38-.09a38.61,38.61,0,0,0-9.94,16.13A52.1,52.1,0,0,1,51,308.59S51.05,308.48,51.1,308.44Zm-2.24,2.5a54.62,54.62,0,0,0,11.8,4.7,80.67,80.67,0,0,0-3.14,21.51H38.88A43.47,43.47,0,0,1,48.86,310.94Zm0,55.52a43.44,43.44,0,0,1-10-26.2H57.52a80.73,80.73,0,0,0,3.14,21.51A54.08,54.08,0,0,0,48.86,366.46Zm22.3,14.3-1-.27c-.39-.12-.79-.23-1.18-.36l-1-.33c-.38-.14-.77-.27-1.14-.42l-1-.38-1.11-.46-.95-.44-1.08-.52c-.32-.16-.63-.31-.94-.48l-1-.58-.9-.53-1-.64-.88-.57c-.33-.22-.66-.46-1-.69l-.85-.62-1-.75c-.28-.22-.55-.43-.82-.66l-.91-.79-.79-.71c-.3-.28-.59-.57-.87-.85l-.76-.74-.13-.15a52.1,52.1,0,0,1,10.65-4.1,38.65,38.65,0,0,0,9.94,16.14Zm9.67,1.35c-6.66-.94-12.49-7.88-16.16-18.14a79.18,79.18,0,0,1,16.16-1.9v20Zm0-23.15a82.43,82.43,0,0,0-17.14,2,77.84,77.84,0,0,1-3.06-20.74h20.2V359Zm0-21.81H60.63a78,78,0,0,1,3.06-20.75,81.76,81.76,0,0,0,17.14,2Zm0-21.82a78.48,78.48,0,0,1-16.16-1.9c3.67-10.25,9.5-17.2,16.16-18.14v20Zm35.07-4.39a43.47,43.47,0,0,1,10,26.21H107.24a80.67,80.67,0,0,0-3.14-21.51A54.62,54.62,0,0,0,115.9,310.94Zm-22.31-14.3c.32.08.65.18,1,.28s.79.23,1.18.36.65.21,1,.33l1.15.41,1,.38,1.11.47.95.43,1.09.53.93.48,1,.58c.31.17.6.35.9.53s.68.41,1,.63l.88.58,1,.68c.29.21.57.41.85.63l1,.74c.28.22.55.43.82.66s.61.53.91.8l.79.7.88.85.75.75.13.14a52.1,52.1,0,0,1-10.65,4.1,38.67,38.67,0,0,0-10-16.13Zm-9.65-1.35c6.65.94,12.48,7.89,16.15,18.14a78.47,78.47,0,0,1-16.15,1.9v-20Zm0,23.15a81.75,81.75,0,0,0,17.13-2,78,78,0,0,1,3.06,20.75H83.94Zm0,21.82h20.19A77.84,77.84,0,0,1,101.07,361h0a82.42,82.42,0,0,0-17.13-2Zm0,41.85v-20a79.16,79.16,0,0,1,16.15,1.9C96.42,374.23,90.59,381.17,83.94,382.11ZM113.66,369c-.24.25-.5.49-.75.74l-.87.85-.79.71-.91.79c-.27.23-.55.45-.83.67s-.62.5-.94.74l-.86.62c-.32.23-.64.46-1,.68l-.89.58-1,.62-.91.54-1,.57-.93.49-1.07.52c-.31.15-.64.29-1,.43l-1.1.47-1,.38-1.14.42-1,.33-1.17.35c-.33.1-.65.2-1,.28l-.38.1a38.65,38.65,0,0,0,9.94-16.14,52.1,52.1,0,0,1,10.65,4.1Zm2.24-2.51a54.08,54.08,0,0,0-11.8-4.69,80.73,80.73,0,0,0,3.14-21.51h18.64A43.44,43.44,0,0,1,115.9,366.46Z"/><path class="cls-5" d="M905.42,500.71a70.3,70.3,0,1,1-70.3,70.3"/><circle class="cls-6" cx="905.42" cy="571.01" r="62.02"/><circle class="cls-7" cx="905.37" cy="570.96" r="62.07" transform="translate(71.34 1241.84) rotate(-71.05)"/><circle class="cls-8" cx="905.42" cy="571.01" r="58.44"/><circle class="cls-7" cx="905.37" cy="570.96" r="62.07"/><path class="cls-9" d="M905.37,651.92a81,81,0,1,1,81-81"/><circle class="cls-10" cx="905.37" cy="651.92" r="2.09"/><circle class="cls-10" cx="986.33" cy="570.96" r="2.09"/><path class="cls-11" d="M944,568.92H866.89c38.55,0,19.67,25.62,58.22,25.62"/><circle class="cls-12" cx="926.55" cy="594.54" r="5"/><circle class="cls-12" cx="866.89" cy="568.92" r="5"/><circle class="cls-12" cx="944" cy="568.92" r="5"/><path class="cls-11" d="M888.25,568.92c34,0,17.89-21.44,45.75-21.44"/><circle class="cls-12" cx="934" cy="547.48" r="5"/><circle class="cls-13" cx="534.97" cy="312.45" r="138.76"/><circle class="cls-11" cx="534.97" cy="312.45" r="138.76"/><g class="cls-14"><circle class="cls-15" cx="534.97" cy="312.45" r="126.62" transform="translate(-64.24 469.79) rotate(-45)"/></g><circle class="cls-16" cx="534.97" cy="312.45" r="77.66" transform="translate(-64.24 469.79) rotate(-45)"/><g class="cls-14"><circle class="cls-17" cx="534.97" cy="312.45" r="153.04" transform="translate(-64.24 469.79) rotate(-45)"/></g><path class="cls-2" d="M513.14,326.73h-8.21l-13.11-12.94,13.11-12.94h8.21L500,313.79Z"/><path class="cls-2" d="M540,280.55h6.44L531,344.34h-6.39Z"/><path class="cls-2" d="M570,313.79,556.8,300.85H565l13.11,12.94L565,326.73H556.8Z"/><circle class="cls-18" cx="534.97" cy="312.45" r="138.76"/><circle class="cls-19" cx="534.97" cy="312.45" r="189.12"/></g></g></svg>